<svg xmlns="http://www.w3.org/2000/svg" viewBox="0 0 145.46 202">
  <defs>
    <style>
      .cls-1, .cls-2 {
        fill: none;
        stroke: #000;
      }

      .cls-1 {
        stroke-miterlimit: 10;
      }

      .cls-2 {
        stroke-linecap: round;
        stroke-linejoin: round;
      }
    </style>
  </defs>
  <title>アセット 1</title>
  <g id="レイヤー_2" data-name="レイヤー 2">
    <g id="レイヤー_1-2" data-name="レイヤー 1">
      <g>
        <path class="cls-1" d="M137.81,84.34Z"/>
        <path class="cls-1" d="M142.16,74.83Z"/>
        <path class="cls-1" d="M137.81,84.34Z"/>
        <path class="cls-1" d="M23.6,134.05h0Z"/>
        <path class="cls-1" d="M23.64,134.06Z"/>
        <path class="cls-1" d="M144.84,69.77Z"/>
        <path class="cls-1" d="M144.91,69.73l-.07,0Z"/>
        <path class="cls-1" d="M142.16,74.83Z"/>
        <path class="cls-1" d="M20.64,122.83l-.06,0Z"/>
        <path class="cls-1" d="M144.91,69.73Z"/>
        <path class="cls-1" d="M144.9,52.53c-.11.07-.05,0,0,0Z"/>
        <path class="cls-1" d="M144.9,52.53Z"/>
        <path class="cls-1" d="M23.55,134Z"/>
        <path class="cls-2" d="M144.84,69.77c-3.2-9.21-5.77-18.77-9-28l9,10.74c-.94-2.67-1.33-5.64-2.49-8.21q-17-37.81-58.19-43C71-.33,58,.35,45.32,4.68,28.69,10.34,17.18,20.46,8.91,35.85a22.52,22.52,0,0,0-.8,2.83s3.08-4.16,2.93-4.17S.67,59.52.5,74L1.66,71.9l2.1,8.45L6,78.29c.64,3.75,1.24,7.25,2,11.39,1-2.1,2.4-5.16,2.4-5.16s2,9.25,2.72,14.15l2-2.58c.35,5.25,1.36,10.4,1.7,15.41,1-2,2-4.1,3.17-6.4,0,6.06.7,12,.7,17.73l3.23-4c-.34,4.89.08,10.13-.27,15.19l10-10.24.58.39-6.11,14c-2.87-.49-5.71-1.16-8.58-1.4a7.35,7.35,0,0,0-4,1c-.46.23-1.06.57-1.53.85-5.12,3.05-7.49,7.46-7.87,13.62-.53,8.45-4.49,17.33-5.59,25.76v0l.12.09A115.4,115.4,0,0,0,70,201.5a114.31,114.31,0,0,0,68.93-23.24l.18-.13-.2-.08c-4.5-2-10.61-4.43-15-6.27L77.6,152.09c.08-4.18-.55-4.21-.53-6.29,0-3.32,1.42-3.9,4.37-2.38,4.36,2.24,8.75,4.46,13.29,6.29,4.88,2,8.52-.11,10-5.17a48.58,48.58,0,0,1,2.56-7.87,19.58,19.58,0,0,1,4.24-5.3c1.15-1.09,1.89-2,1.51-3.64-.51-2.17.28-3.46,2.53-4,1.71-.4,2.54-1.58,2.69-3.44.25-3,.84-6,1.06-8.95.15-2,1-2.64,2.91-2.41a5.16,5.16,0,0,0,2.35,0c1.38-.54,3.26-1.05,3.8-2.14s0-3-.65-4.27c-.85-1.76-2.3-3.22-3.33-4.91-2.62-4.3-3-8.9-1.38-14.47l10.62,11.68c-1-5.64-2-10.74-2.91-15.84,2.19,1.89,4.91,3.47,7.11,5.36-1-4.74-1.64-9.72-2.82-15.25l7.17,5.74c-2.25-4.84-4.06-10-6.58-15.46C140.13,62.08,142.08,66.3,144.84,69.77Z"/>
      </g>
    </g>
  </g>
</svg>
